<svg xmlns="http://www.w3.org/2000/svg" viewBox="0 0 88 50" class="measure-library-view-module__C7hfeq__tileScene" aria-hidden="true" focusable="false"><defs><pattern id="_r_12_-hatch" width="5" height="5" patternUnits="userSpaceOnUse" patternTransform="rotate(45)"><rect width="5" height="5" fill="#fff"></rect><rect width="2.5" height="5" fill="#e5484d"></rect></pattern><pattern id="_r_12_-paving" width="10" height="10" patternUnits="userSpaceOnUse"><rect width="10" height="10" fill="#f5ebd8"></rect><path d="M0 .5H10M.5 0V10" fill="none" stroke="#ecdcbd" stroke-width="0.7"></path></pattern><pattern id="_r_12_-grid" width="10" height="10" patternUnits="userSpaceOnUse"><rect width="10" height="10" fill="#e7eef9"></rect><path d="M0 .5H10M.5 0V10" fill="none" stroke="#d2dcee" stroke-width="0.6" opacity="0.7"></path></pattern></defs><rect width="88" height="50" fill="#e7eef9"></rect><g><rect y="12" width="88" height="26" fill="#d2dcee"></rect><rect x="31" width="26" height="50" fill="#d2dcee"></rect><rect y="16" width="88" height="18" fill="#56627e"></rect><rect x="35" width="18" height="50" fill="#56627e"></rect><path d="M0 25H33M55 25H88" fill="none" stroke="#fff" stroke-width="1.3" stroke-dasharray="4 3" stroke-linecap="butt" stroke-linejoin="round"></path><path d="M44 0V14M44 36V50" fill="none" stroke="#fff" stroke-width="1.3" stroke-dasharray="4 3" stroke-linecap="butt" stroke-linejoin="round"></path><path d="M33 25.4V33.6M55 16.4V24.6M44.4 36H52.6M35.4 14H43.6" fill="none" stroke="#fff" stroke-width="1.1" stroke-linecap="round" stroke-linejoin="round" opacity="0.8"></path></g><path d="M49 46V30q0-5-5-5H30" fill="none" stroke="#fff" stroke-width="2" stroke-linecap="round" stroke-linejoin="round" opacity="0.9"></path><path d="M31 21.4L26.4 25 31 28.6z" fill="#fff" opacity="0.9"></path><path d="M33 17l14 16" fill="none" stroke="#e5484d" stroke-width="2.6" stroke-linecap="round" stroke-linejoin="round"></path><g transform="translate(45.5 49) rotate(-90)"><rect width="12" height="7" rx="2.2" fill="#2f6fde"></rect><rect x="7.2" y="1" width="2.4" height="5" rx="0.8" fill="#fff" opacity="0.75"></rect><rect x="2" y="1.3" width="1.6" height="4.4" rx="0.6" fill="#fff" opacity="0.5"></rect></g><g><circle cx="20" cy="6.5" r="5.5" fill="#fff" stroke="#e5484d" stroke-width="1.4300000000000002"></circle><path d="M21.8 9.4V6.6q0-1.6-1.6-1.6h-3" fill="none" stroke="#16204a" stroke-width="1.2" stroke-linecap="round" stroke-linejoin="round"></path><path d="M17.6 3.6l-1.8 1.4 1.8 1.4z" fill="#16204a"></path><path d="M16.4 2.8l7.2 7.4" fill="none" stroke="#e5484d" stroke-width="1.2" stroke-linecap="round" stroke-linejoin="round"></path></g></svg>