<svg xmlns="http://www.w3.org/2000/svg" viewBox="0 0 88 50" class="measure-library-view-module__C7hfeq__tileScene" aria-hidden="true" focusable="false"><defs><pattern id="_r_1k_-hatch" width="5" height="5" patternUnits="userSpaceOnUse" patternTransform="rotate(45)"><rect width="5" height="5" fill="#fff"></rect><rect width="2.5" height="5" fill="#e5484d"></rect></pattern><pattern id="_r_1k_-paving" width="10" height="10" patternUnits="userSpaceOnUse"><rect width="10" height="10" fill="#f5ebd8"></rect><path d="M0 .5H10M.5 0V10" fill="none" stroke="#ecdcbd" stroke-width="0.7"></path></pattern><pattern id="_r_1k_-grid" width="10" height="10" patternUnits="userSpaceOnUse"><rect width="10" height="10" fill="#e7eef9"></rect><path d="M0 .5H10M.5 0V10" fill="none" stroke="#d2dcee" stroke-width="0.6" opacity="0.7"></path></pattern></defs><rect width="88" height="50" fill="#e7eef9"></rect><g><rect y="11" width="88" height="5" fill="#d2dcee"></rect><rect y="36" width="88" height="5" fill="#d2dcee"></rect><rect y="16" width="88" height="20" fill="#56627e"></rect><path d="M0 26H88" fill="none" stroke="#fff" stroke-width="1.3" stroke-dasharray="5 4" stroke-linecap="butt" stroke-linejoin="round"></path></g><path d="M22 29.5h18M28 32h14M24 34h16" fill="none" stroke="#fff" stroke-width="1.2" stroke-linecap="round" stroke-linejoin="round" opacity="0.8"></path><g data-moves="right"><g transform="translate(44 27.5)"><rect width="12" height="7" rx="2.2" fill="#f5a524"></rect><rect x="7.2" y="1" width="2.4" height="5" rx="0.8" fill="#fff" opacity="0.75"></rect><rect x="2" y="1.3" width="1.6" height="4.4" rx="0.6" fill="#fff" opacity="0.5"></rect></g></g><path d="M58 19h14M58 22h12" fill="none" stroke="#fff" stroke-width="1.2" stroke-linecap="round" stroke-linejoin="round" opacity="0.55"></path><g data-moves="left"><g transform="translate(57 18) scale(-1 1)"><rect width="12" height="7" rx="2.2" fill="#2f6fde"></rect><rect x="7.2" y="1" width="2.4" height="5" rx="0.8" fill="#fff" opacity="0.75"></rect><rect x="2" y="1.3" width="1.6" height="4.4" rx="0.6" fill="#fff" opacity="0.5"></rect></g></g><g><circle cx="77" cy="6.5" r="4.6" fill="#fff" stroke="#2456a8" stroke-width="1.3"></circle><g transform="translate(77 6.5) scale(0.9199999999999999)"><path d="M0 0V-2.6M-1.4 -5.4h2.8" fill="none" stroke="#2456a8" stroke-width="1.2" stroke-linecap="round" stroke-linejoin="round"></path></g></g></svg>