<svg xmlns="http://www.w3.org/2000/svg" viewBox="0 0 88 50" class="measure-library-view-module__C7hfeq__tileScene" aria-hidden="true" focusable="false"><defs><pattern id="_r_s_-hatch" width="5" height="5" patternUnits="userSpaceOnUse" patternTransform="rotate(45)"><rect width="5" height="5" fill="#fff"></rect><rect width="2.5" height="5" fill="#e5484d"></rect></pattern><pattern id="_r_s_-paving" width="10" height="10" patternUnits="userSpaceOnUse"><rect width="10" height="10" fill="#f5ebd8"></rect><path d="M0 .5H10M.5 0V10" fill="none" stroke="#ecdcbd" stroke-width="0.7"></path></pattern><pattern id="_r_s_-grid" width="10" height="10" patternUnits="userSpaceOnUse"><rect width="10" height="10" fill="#e7eef9"></rect><path d="M0 .5H10M.5 0V10" fill="none" stroke="#d2dcee" stroke-width="0.6" opacity="0.7"></path></pattern></defs><rect width="88" height="50" fill="#e7eef9"></rect><g><rect y="12" width="88" height="26" fill="#d2dcee"></rect><rect x="31" width="26" height="50" fill="#d2dcee"></rect><rect y="16" width="88" height="18" fill="#56627e"></rect><rect x="35" width="18" height="50" fill="#56627e"></rect><path d="M0 25H33M55 25H88" fill="none" stroke="#fff" stroke-width="1.3" stroke-dasharray="4 3" stroke-linecap="butt" stroke-linejoin="round"></path><path d="M44 0V14M44 36V50" fill="none" stroke="#fff" stroke-width="1.3" stroke-dasharray="4 3" stroke-linecap="butt" stroke-linejoin="round"></path><path d="M33 25.4V33.6M55 16.4V24.6M44.4 36H52.6M35.4 14H43.6" fill="none" stroke="#fff" stroke-width="1.1" stroke-linecap="round" stroke-linejoin="round" opacity="0.8"></path></g><path d="M36 37h2v4h-2zM40 37h2v4h-2zM44 37h2v4h-2zM48 37h2v4h-2zM52 37h1v4h-1z" fill="#fff" opacity="0.85"></path><path d="M36 9h2v4h-2zM40 9h2v4h-2zM44 9h2v4h-2zM48 9h2v4h-2zM52 9h1v4h-1z" fill="#fff" opacity="0.85"></path><g><rect x="59" y="0.5" width="5.4" height="14" rx="1.6" fill="#16204a"></rect><circle cx="61.7" cy="3.1" r="1.5" fill="#4a5577"></circle><circle cx="61.7" cy="7.5" r="1.5" fill="#4a5577"></circle><circle cx="61.7" cy="11.9" r="1.5" fill="#3ddc84"></circle></g><g><rect x="26" y="36" width="5.4" height="14" rx="1.6" fill="#16204a"></rect><circle cx="28.7" cy="38.6" r="1.5" fill="#e5484d"></circle><circle cx="28.7" cy="43" r="1.5" fill="#4a5577"></circle><circle cx="28.7" cy="47.4" r="1.5" fill="#4a5577"></circle></g><g transform="translate(8 26)"><rect width="12" height="7" rx="2.2" fill="#f5a524"></rect><rect x="7.2" y="1" width="2.4" height="5" rx="0.8" fill="#fff" opacity="0.75"></rect><rect x="2" y="1.3" width="1.6" height="4.4" rx="0.6" fill="#fff" opacity="0.5"></rect></g><g data-moves="down"><g transform="translate(52.5 2) rotate(90)"><rect width="12" height="7" rx="2.2" fill="#2f6fde"></rect><rect x="7.2" y="1" width="2.4" height="5" rx="0.8" fill="#fff" opacity="0.75"></rect><rect x="2" y="1.3" width="1.6" height="4.4" rx="0.6" fill="#fff" opacity="0.5"></rect></g></g></svg>