<svg xmlns="http://www.w3.org/2000/svg" viewBox="0 0 88 50" class="measure-library-view-module__C7hfeq__tileScene" aria-hidden="true" focusable="false"><defs><pattern id="_r_v_-hatch" width="5" height="5" patternUnits="userSpaceOnUse" patternTransform="rotate(45)"><rect width="5" height="5" fill="#fff"></rect><rect width="2.5" height="5" fill="#e5484d"></rect></pattern><pattern id="_r_v_-paving" width="10" height="10" patternUnits="userSpaceOnUse"><rect width="10" height="10" fill="#f5ebd8"></rect><path d="M0 .5H10M.5 0V10" fill="none" stroke="#ecdcbd" stroke-width="0.7"></path></pattern><pattern id="_r_v_-grid" width="10" height="10" patternUnits="userSpaceOnUse"><rect width="10" height="10" fill="#fbf1e0"></rect><path d="M0 .5H10M.5 0V10" fill="none" stroke="#eedcbd" stroke-width="0.6" opacity="0.7"></path></pattern></defs><rect width="88" height="50" fill="#fbf1e0"></rect><g><rect y="27" width="88" height="5" fill="#eedcbd"></rect><rect y="46" width="88" height="5" fill="#eedcbd"></rect><rect y="32" width="88" height="14" fill="#56627e"></rect></g><g><rect x="10" y="27" width="3" height="22" rx="0.8" fill="#3a4466"></rect><rect x="9" y="36" width="5" height="4" rx="1" fill="#f5a524"></rect><circle cx="11.5" cy="38" r="1" fill="#fff"></circle></g><g data-moves="right"><g transform="translate(20 35.5)"><rect width="12" height="7" rx="2.2" fill="#2f6fde"></rect><rect x="7.2" y="1" width="2.4" height="5" rx="0.8" fill="#fff" opacity="0.75"></rect><rect x="2" y="1.3" width="1.6" height="4.4" rx="0.6" fill="#fff" opacity="0.5"></rect></g></g><path d="M36 29H86" fill="none" stroke="#3a4466" stroke-width="0.8" stroke-linecap="round" stroke-linejoin="round" opacity="0.6"></path><rect x="37" y="26" width="3.1" height="3" rx="0.8" fill="#f3d6a4"></rect><rect x="41.1" y="25" width="3.1" height="4" rx="0.8" fill="#f3d6a4"></rect><rect x="45.2" y="17" width="3.1" height="12" rx="0.8" fill="#f5a524"></rect><rect x="49.3" y="13" width="3.1" height="16" rx="0.8" fill="#f5a524"></rect><rect x="53.4" y="19" width="3.1" height="10" rx="0.8" fill="#f3d6a4"></rect><rect x="57.5" y="23" width="3.1" height="6" rx="0.8" fill="#f3d6a4"></rect><rect x="61.599999999999994" y="23" width="3.1" height="6" rx="0.8" fill="#f3d6a4"></rect><rect x="65.69999999999999" y="22" width="3.1" height="7" rx="0.8" fill="#f3d6a4"></rect><rect x="69.8" y="16" width="3.1" height="13" rx="0.8" fill="#f5a524"></rect><rect x="73.9" y="14" width="3.1" height="15" rx="0.8" fill="#f5a524"></rect><rect x="78" y="21" width="3.1" height="8" rx="0.8" fill="#f3d6a4"></rect><rect x="82.1" y="25" width="3.1" height="4" rx="0.8" fill="#f3d6a4"></rect><g><circle cx="10" cy="8" r="5.4" fill="#fff" stroke="#a4600c" stroke-width="1.3"></circle><g transform="translate(10 8) scale(1.08)"><path d="M0 0V-3M0 0l2.2 1.2" fill="none" stroke="#a4600c" stroke-width="1.2" stroke-linecap="round" stroke-linejoin="round"></path></g></g></svg>