<svg xmlns="http://www.w3.org/2000/svg" viewBox="0 0 88 50" class="measure-library-view-module__C7hfeq__tileScene" aria-hidden="true" focusable="false"><defs><pattern id="_r_1f_-hatch" width="5" height="5" patternUnits="userSpaceOnUse" patternTransform="rotate(45)"><rect width="5" height="5" fill="#fff"></rect><rect width="2.5" height="5" fill="#e5484d"></rect></pattern><pattern id="_r_1f_-paving" width="10" height="10" patternUnits="userSpaceOnUse"><rect width="10" height="10" fill="#f5ebd8"></rect><path d="M0 .5H10M.5 0V10" fill="none" stroke="#ecdcbd" stroke-width="0.7"></path></pattern><pattern id="_r_1f_-grid" width="10" height="10" patternUnits="userSpaceOnUse"><rect width="10" height="10" fill="#f1e8f7"></rect><path d="M0 .5H10M.5 0V10" fill="none" stroke="#e0d0ec" stroke-width="0.6" opacity="0.7"></path></pattern></defs><rect width="88" height="50" fill="#f1e8f7"></rect><rect width="88" height="50" fill="url(#_r_1f_-grid)"></rect><rect x="34" y="16" width="20" height="16" rx="2" fill="#e0d0ec"></rect><path d="M4 24H84" fill="none" stroke="#a79cb8" stroke-width="2" stroke-dasharray="3 2.6" stroke-linecap="butt" stroke-linejoin="round"></path><g><path d="M4 24H24Q28 24 28 20V12Q28 8 32 8H56Q60 8 60 12V20Q60 24 64 24H84" fill="none" stroke="#fff" stroke-width="5.5" stroke-linecap="round" stroke-linejoin="round" opacity="0.9"></path><path d="M4 24H24Q28 24 28 20V12Q28 8 32 8H56Q60 8 60 12V20Q60 24 64 24H84" fill="none" stroke="#7b3fa0" stroke-width="3" stroke-linecap="round" stroke-linejoin="round"></path><circle cx="14" cy="24" r="2.3" fill="#fff" stroke="#7b3fa0" stroke-width="1.4"></circle><circle cx="44" cy="8" r="2.3" fill="#fff" stroke="#7b3fa0" stroke-width="1.4"></circle><circle cx="74" cy="24" r="2.3" fill="#fff" stroke="#7b3fa0" stroke-width="1.4"></circle></g><rect x="36" y="20" width="16" height="8" fill="url(#_r_1f_-hatch)" opacity="0.5"></rect><g data-moves="right"><g transform="translate(30 37)"><rect width="24" height="8" rx="2" fill="#7b3fa0"></rect><rect x="3" y="1.5" width="15" height="5" rx="1" fill="#fff" opacity="0.35"></rect><rect x="20" y="1.2" width="2.6" height="5.6" rx="0.8" fill="#fff" opacity="0.85"></rect></g></g></svg>