<svg xmlns="http://www.w3.org/2000/svg" viewBox="0 0 88 50" class="measure-library-view-module__C7hfeq__tileScene" aria-hidden="true" focusable="false"><defs><pattern id="_r_q_-hatch" width="5" height="5" patternUnits="userSpaceOnUse" patternTransform="rotate(45)"><rect width="5" height="5" fill="#fff"></rect><rect width="2.5" height="5" fill="#e5484d"></rect></pattern><pattern id="_r_q_-paving" width="10" height="10" patternUnits="userSpaceOnUse"><rect width="10" height="10" fill="#f5ebd8"></rect><path d="M0 .5H10M.5 0V10" fill="none" stroke="#ecdcbd" stroke-width="0.7"></path></pattern><pattern id="_r_q_-grid" width="10" height="10" patternUnits="userSpaceOnUse"><rect width="10" height="10" fill="#e7eef9"></rect><path d="M0 .5H10M.5 0V10" fill="none" stroke="#d2dcee" stroke-width="0.6" opacity="0.7"></path></pattern></defs><rect width="88" height="50" fill="#e7eef9"></rect><rect width="88" height="50" fill="url(#_r_q_-paving)"></rect><rect y="40" width="88" height="10" fill="#56627e"></rect><rect x="6" y="22" width="40" height="14" rx="1.6" fill="none" stroke="#fff" stroke-width="1.3" stroke-dasharray="2.4 2"></rect><g transform="translate(9 24)"><g fill="none" stroke="#0e7c86" stroke-width="1.3" stroke-linecap="round" stroke-linejoin="round"><path d="M2 8.4h6.4L9.4 1M8 1h3"></path><circle cx="2" cy="8.4" r="1.4"></circle><circle cx="9.4" cy="8.4" r="1.4"></circle></g></g><g transform="translate(21 24)"><g fill="none" stroke="#0e7c86" stroke-width="1.3" stroke-linecap="round" stroke-linejoin="round"><path d="M2 8.4h6.4L9.4 1M8 1h3"></path><circle cx="2" cy="8.4" r="1.4"></circle><circle cx="9.4" cy="8.4" r="1.4"></circle></g></g><g transform="translate(33 24)"><g fill="none" stroke="#3a4466" stroke-width="1.3" stroke-linecap="round" stroke-linejoin="round"><path d="M2 8.4h6.4L9.4 1M8 1h3"></path><circle cx="2" cy="8.4" r="1.4"></circle><circle cx="9.4" cy="8.4" r="1.4"></circle></g></g><g data-moves="right"><g transform="translate(56 40)"><g fill="none" stroke="#0e7c86" stroke-width="1.3" stroke-linecap="round" stroke-linejoin="round"><path d="M2 8.4h6.4L9.4 1M8 1h3"></path><circle cx="2" cy="8.4" r="1.4"></circle><circle cx="9.4" cy="8.4" r="1.4"></circle></g></g></g><g><circle cx="72" cy="16" r="9" fill="#fff" stroke="#e5484d" stroke-width="2.34"></circle><text x="72" y="19.15" text-anchor="middle" font-family="Inter, Arial, sans-serif" font-weight="800" font-size="8.549999999999999" fill="#16204a">20</text></g></svg>