<svg xmlns="http://www.w3.org/2000/svg" viewBox="0 0 88 50" class="measure-library-view-module__C7hfeq__tileScene" aria-hidden="true" focusable="false"><defs><pattern id="_r_r_-hatch" width="5" height="5" patternUnits="userSpaceOnUse" patternTransform="rotate(45)"><rect width="5" height="5" fill="#fff"></rect><rect width="2.5" height="5" fill="#e5484d"></rect></pattern><pattern id="_r_r_-paving" width="10" height="10" patternUnits="userSpaceOnUse"><rect width="10" height="10" fill="#f5ebd8"></rect><path d="M0 .5H10M.5 0V10" fill="none" stroke="#ecdcbd" stroke-width="0.7"></path></pattern><pattern id="_r_r_-grid" width="10" height="10" patternUnits="userSpaceOnUse"><rect width="10" height="10" fill="#fbf1e0"></rect><path d="M0 .5H10M.5 0V10" fill="none" stroke="#eedcbd" stroke-width="0.6" opacity="0.7"></path></pattern></defs><rect width="88" height="50" fill="#fbf1e0"></rect><rect x="2" y="4" width="84" height="42" rx="3" fill="#56627e"></rect><rect x="2" y="22" width="84" height="6" fill="#6d7b9c"></rect><g><path d="M8 5v15M8 30v15" fill="none" stroke="#fff" stroke-width="0.9" stroke-linecap="round" stroke-linejoin="round" opacity="0.85"></path><g transform="translate(15.6 6.2) rotate(90)"><rect width="12" height="7" rx="2.2" fill="#2f6fde"></rect><rect x="7.2" y="1" width="2.4" height="5" rx="0.8" fill="#fff" opacity="0.75"></rect><rect x="2" y="1.3" width="1.6" height="4.4" rx="0.6" fill="#fff" opacity="0.5"></rect></g><g transform="translate(8.6 43.8) rotate(-90)"><rect width="12" height="7" rx="2.2" fill="#9fb0d4"></rect><rect x="7.2" y="1" width="2.4" height="5" rx="0.8" fill="#fff" opacity="0.75"></rect><rect x="2" y="1.3" width="1.6" height="4.4" rx="0.6" fill="#fff" opacity="0.5"></rect></g></g><g><path d="M20 5v15M20 30v15" fill="none" stroke="#fff" stroke-width="0.9" stroke-linecap="round" stroke-linejoin="round" opacity="0.85"></path><g transform="translate(20.6 43.8) rotate(-90)"><rect width="12" height="7" rx="2.2" fill="#2f6fde"></rect><rect x="7.2" y="1" width="2.4" height="5" rx="0.8" fill="#fff" opacity="0.75"></rect><rect x="2" y="1.3" width="1.6" height="4.4" rx="0.6" fill="#fff" opacity="0.5"></rect></g></g><g><path d="M32 5v15M32 30v15" fill="none" stroke="#fff" stroke-width="0.9" stroke-linecap="round" stroke-linejoin="round" opacity="0.85"></path><g transform="translate(39.6 6.2) rotate(90)"><rect width="12" height="7" rx="2.2" fill="#22a06b"></rect><rect x="7.2" y="1" width="2.4" height="5" rx="0.8" fill="#fff" opacity="0.75"></rect><rect x="2" y="1.3" width="1.6" height="4.4" rx="0.6" fill="#fff" opacity="0.5"></rect></g></g><g><path d="M44 5v15M44 30v15" fill="none" stroke="#fff" stroke-width="0.9" stroke-linecap="round" stroke-linejoin="round" opacity="0.85"></path><g transform="translate(51.6 6.2) rotate(90)"><rect width="12" height="7" rx="2.2" fill="#8a4fc0"></rect><rect x="7.2" y="1" width="2.4" height="5" rx="0.8" fill="#fff" opacity="0.75"></rect><rect x="2" y="1.3" width="1.6" height="4.4" rx="0.6" fill="#fff" opacity="0.5"></rect></g><g transform="translate(44.6 43.8) rotate(-90)"><rect width="12" height="7" rx="2.2" fill="#22a06b"></rect><rect x="7.2" y="1" width="2.4" height="5" rx="0.8" fill="#fff" opacity="0.75"></rect><rect x="2" y="1.3" width="1.6" height="4.4" rx="0.6" fill="#fff" opacity="0.5"></rect></g></g><g><path d="M56 5v15M56 30v15" fill="none" stroke="#fff" stroke-width="0.9" stroke-linecap="round" stroke-linejoin="round" opacity="0.85"></path><g transform="translate(56.6 43.8) rotate(-90)"><rect width="12" height="7" rx="2.2" fill="#8a4fc0"></rect><rect x="7.2" y="1" width="2.4" height="5" rx="0.8" fill="#fff" opacity="0.75"></rect><rect x="2" y="1.3" width="1.6" height="4.4" rx="0.6" fill="#fff" opacity="0.5"></rect></g></g><g><path d="M68 5v15M68 30v15" fill="none" stroke="#fff" stroke-width="0.9" stroke-linecap="round" stroke-linejoin="round" opacity="0.85"></path><g transform="translate(75.6 6.2) rotate(90)"><rect width="12" height="7" rx="2.2" fill="#9fb0d4"></rect><rect x="7.2" y="1" width="2.4" height="5" rx="0.8" fill="#fff" opacity="0.75"></rect><rect x="2" y="1.3" width="1.6" height="4.4" rx="0.6" fill="#fff" opacity="0.5"></rect></g></g><path d="M80 5v15M80 30v15" fill="none" stroke="#fff" stroke-width="0.9" stroke-linecap="round" stroke-linejoin="round" opacity="0.85"></path><rect x="2" y="4" width="84" height="42" rx="3" fill="none" stroke="#eedcbd" stroke-width="2"></rect><g><circle cx="80" cy="7" r="5" fill="#0e7c86" stroke="#fff" stroke-width="1"></circle><g transform="translate(80 7) scale(1)"><path d="M0 -2.4v4.8M-2.4 0h4.8" fill="none" stroke="#fff" stroke-width="1.5" stroke-linecap="round" stroke-linejoin="round"></path></g></g></svg>