<svg xmlns="http://www.w3.org/2000/svg" viewBox="0 0 88 50" class="measure-library-view-module__C7hfeq__tileScene" aria-hidden="true" focusable="false"><defs><pattern id="_r_1r_-hatch" width="5" height="5" patternUnits="userSpaceOnUse" patternTransform="rotate(45)"><rect width="5" height="5" fill="#fff"></rect><rect width="2.5" height="5" fill="#e5484d"></rect></pattern><pattern id="_r_1r_-paving" width="10" height="10" patternUnits="userSpaceOnUse"><rect width="10" height="10" fill="#f5ebd8"></rect><path d="M0 .5H10M.5 0V10" fill="none" stroke="#ecdcbd" stroke-width="0.7"></path></pattern><pattern id="_r_1r_-grid" width="10" height="10" patternUnits="userSpaceOnUse"><rect width="10" height="10" fill="#f1e8f7"></rect><path d="M0 .5H10M.5 0V10" fill="none" stroke="#e0d0ec" stroke-width="0.6" opacity="0.7"></path></pattern></defs><rect width="88" height="50" fill="#f1e8f7"></rect><g><rect y="11" width="88" height="5" fill="#e0d0ec"></rect><rect y="36" width="88" height="5" fill="#e0d0ec"></rect><rect y="16" width="88" height="20" fill="#56627e"></rect><path d="M0 26H88" fill="none" stroke="#fff" stroke-width="1.3" stroke-dasharray="5 4" stroke-linecap="butt" stroke-linejoin="round"></path></g><g data-moves="right"><g transform="translate(10 27.5)"><rect width="12" height="7" rx="2.2" fill="#f7c948"></rect><rect x="7.2" y="1" width="2.4" height="5" rx="0.8" fill="#fff" opacity="0.8"></rect><rect x="4.2" y="2" width="2.2" height="3" rx="0.5" fill="#16204a"></rect></g></g><g data-moves="left"><g transform="translate(58 18) scale(-1 1)"><rect width="12" height="7" rx="2.2" fill="#f7c948"></rect><rect x="7.2" y="1" width="2.4" height="5" rx="0.8" fill="#fff" opacity="0.8"></rect><rect x="4.2" y="2" width="2.2" height="3" rx="0.5" fill="#16204a"></rect></g></g><g transform="translate(62 27.5)"><rect width="12" height="7" rx="2.2" fill="#f7c948"></rect><rect x="7.2" y="1" width="2.4" height="5" rx="0.8" fill="#fff" opacity="0.8"></rect><rect x="4.2" y="2" width="2.2" height="3" rx="0.5" fill="#16204a"></rect></g><g transform="translate(78 37.5)"><g transform="scale(0.8)"><circle cx="3" cy="2" r="1.9" fill="#16204a"></circle><path d="M.6 11V6.4A2.4 2.4 0 0 1 3 4.2a2.4 2.4 0 0 1 2.4 2.2V11z" fill="#16204a"></path></g></g><g><path d="M30 12c-1-3-5-5-5-8.6a5 5 0 0 1 10 0c0 3.6-4 5.6-5 8.6z" fill="#e5484d" stroke="#fff" stroke-width="0.9"></path><circle cx="30" cy="3.4000000000000004" r="1.9" fill="#fff"></circle></g></svg>